<svg version="1.1" viewBox="0 0 2048 2048" width="512" height="512" xmlns="http://www.w3.org/2000/svg">
<path transform="translate(777,51)" d="m0 0h398l15 3 14 7 11 9 8 10 7 15 2 7 1 12v193l-2 16-5 13-6 10-8 9-10 7-9 5-7 2-8 1h182l-13-11-8-8-9-11-10-14-10-19-7-19-5-22-1-8v-30l4-23 5-17 10-22 9-14 10-13 7-8h2l-4-4-16-8-11-7-9-8-5-8-2-6v-14l4-10 8-9 10-5 4-1h11l11 4 10 7 16 8 21 6 25 4 24 2 24 1 25 3 21 6 17 7 17 10 13 10 10 9 11 11 9 12 10 16 8 17 6 18 4 23 1 11v15l-3 23-5 19-9 21-9 16-12 16-5 6h-2l-2 4-12 11-5 3 64 1 14 3 12 6 12 11 7 13 2 8v13l-2 8-6 12-9 10-11 7-13 4-8 1h-335l1 6-1 106h134l36 3 23 4 23 6 24 8 25 11 19 10 19 12 16 12 10 8 14 12 17 17 7 8 12 15 12 17 9 15 11 20 9 21 8 21 5 21 9 49 16 82 18 91 14 71 6 27 1 13h9l18 3 17 5 18 8 18 10 14 10 13 10 5 4v2l4 2 5-1 12-3h20l15 4 15 8 14 12 8 9 10 15 8 15 8 22 5 21 2 14 1 14v17l-2 24-4 20-8 24-9 19-8 12-11 13-10 9-9 6h-2l-1 197h59l5 2v112l-5 3-172 1h-38v10l-3 24-6 25-7 19-9 19-12 19-9 11-9 10-7 8-8 7-17 13-13 8-19 10-21 8-19 5-17 3-10 1h-32l-23-3-20-5-19-7-21-10-16-10-14-11-12-11-10-10-11-14-9-13-8-14-8-17-6-17-4-15-4-24-1-19-792 1-2 25-5 24-5 17-9 21-8 15-13 19-12 14-14 14-14 11-15 10-14 8-21 9-23 7-22 4-11 1h-30l-23-3-20-5-22-8-20-10-18-12-10-8-10-9-14-14-11-14-10-15-10-19-8-20-6-23-3-18-1-10v-12h-168l-1-1v-882l2-42 3-24 5-25 8-28 10-25 10-21 15-25 14-20 7-8 8-10 7-7 7-8 12-11 11-9 14-11 15-10 15-9 27-14 28-11 20-6 29-6 24-3 15-1h110v-112h-337l-14-3-12-6-11-10-7-12-3-11v-11l3-11 5-10 9-10 11-7 11-4 7-1 119-1-12-3-11-6-9-7-9-10-8-15-3-13-1-31v-82l1-34 3-12 6-12 9-11 10-9 14-7 14-3h334l15 3 14 7 11 9 9 12 7 16 2 17v129l-2 15-5 13-6 10-8 9-10 7-9 5-7 2-8 1h203l-12-3-13-7-12-11-7-10-6-13-2-10v-212l5-16 7-11 11-12 10-7 12-5zm-201 416v112h576v-112z" fill="#FDBB87"/>
<path transform="translate(844,803)" d="m0 0h295l25 1 13 4 14 8 10 10 9 12 3 6 1 10 1 53-1 285v56l1 89 1 45 544 1 67 1 6 20 4 13 7 16 9 16 10 13 10 10 16 10 12 5 14 3 17-1 15-4h5v193h59l5 2v112l-5 3-172 1h-38v10l-3 24-6 25-7 19-9 19-12 19-9 11-9 10-7 8-8 7-17 13-13 8-19 10-21 8-19 5-17 3-10 1h-32l-23-3-20-5-19-7-21-10-16-10-14-11-12-11-10-10-11-14-9-13-8-14-8-17-6-17-4-15-4-24-1-19-792 1-2 25-5 24-5 17-9 21-8 15-13 19-12 14-14 14-14 11-15 10-14 8-21 9-23 7-22 4-11 1h-30l-23-3-20-5-22-8-20-10-18-12-10-8-10-9-14-14-11-14-10-15-10-19-8-20-6-23-3-18-1-10v-12h-168l-1-1v-882l1-16h1l2 80v34l-1 86-1 249 1 35 1 1h700v-502l1-25 2-10 6-12 8-10 9-8 10-6 12-4 10-1z" fill="#D2926C"/>
<path transform="translate(777,51)" d="m0 0h398l15 3 14 7 11 9 8 10 7 15 2 7 1 12v193l-2 16-5 13-6 10-8 9-10 7-9 5-7 2-8 1h182l-13-11-8-8-9-11-10-14-10-19-7-19-5-22-1-8v-30l4-23 5-17 10-22 9-14 10-13 7-8h2l-4-4-16-8-11-7-9-8-5-8-2-6v-14l4-10 8-9 10-5 4-1h11l11 4 10 7 16 8 21 6 25 4 24 2 24 1 25 3 21 6 17 7 17 10 13 10 10 9 11 11 9 12 10 16 8 17 6 18 4 23 1 11v15l-3 23-5 19-9 21-9 16-12 16-5 6h-2l-2 4-12 11-5 3 64 1 14 3 12 6 12 11 7 13 2 8v13l-2 8-6 12-9 10-11 7-13 4-8 1h-335l1 6-1 105-10 1h-89l-26-1-3-1v-110h-576v110l-1 1-12 1h-87l-23-1-5-1v-110h-337l-14-3-12-6-11-10-7-12-3-11v-11l3-11 5-10 9-10 11-7 11-4 7-1 119-1-12-3-11-6-9-7-9-10-8-15-3-13-1-31v-82l1-34 3-12 6-12 9-11 10-9 14-7 14-3h334l15 3 14 7 11 9 9 12 7 16 2 17v129l-2 15-5 13-6 10-8 9-10 7-9 5-7 2-8 1h203l-12-3-13-7-12-11-7-10-6-13-2-10v-212l5-16 7-11 11-12 10-7 12-5z" fill="#008C9B"/>
<path transform="translate(33,1383)" d="m0 0h703l1 42v68l-1 185h-30l-33 1h-104l-5-5-13-15-17-17-17-13-15-9-16-8-17-7-18-5-24-4-7-1h-34l-26 4-25 7-21 9-20 11-18 13-16 15-7 7-7 8-8 9-17 1h-188z" fill="#E7213C"/>
<path transform="translate(1216,1383)" d="m0 0h544l67 1 6 20 4 13 7 16 9 16 10 13 10 10 16 10 12 5 14 3 17-1 15-4h5v193l-28 1h-159l-12-13-7-8-5-5-1-3-4-2-8-8-19-14-24-13-20-8-18-5-24-4-8-1h-32l-26 4-19 5-19 7-16 8-12 7-13 9-11 9-14 13-7 8-10 12-60 1h-160z" fill="#E7213B"/>
<path transform="translate(1583,1594)" d="m0 0h32l27 4 20 5 16 6 17 8 17 10 18 14 8 8 6 5 7 8 9 10 5 6h246l5 2v112l-5 3-172 1h-38v10l-3 24-6 25-7 19-9 19-12 19-9 11-9 10-7 8-8 7-17 13-13 8-19 10-21 8-19 5-17 3-10 1h-32l-23-3-20-5-19-7-21-10-16-10-14-11-12-11-10-10-11-14-9-13-8-14-8-17-6-17-4-15-4-24-2-19-180-1v-116l218-1 9-10 7-9h2l2-4 7-7 8-7 17-13 15-9 16-8 18-7 18-5 15-3z" fill="#333434"/>
<path transform="translate(32,1364)" d="m0 0h1v315l188-1 17-1 10-11 2-3h2l2-4 15-15 11-9 16-11 18-10 21-9 17-5 19-4 15-2h34l26 4 20 5 16 6 16 8 11 6 12 8 10 8 10 9 15 15 10 13 3 2h165l1 1 1 16-1 100-129 1-1 2-2 24-5 24-5 17-9 21-8 15-13 19-12 14-14 14-14 11-15 10-14 8-21 9-23 7-22 4-11 1h-30l-23-3-20-5-22-8-20-10-18-12-10-8-10-9-14-14-11-14-10-15-10-19-8-20-6-23-3-18-1-10v-12h-168l-1-1z" fill="#333434"/>
<path transform="translate(777,51)" d="m0 0h398l15 3 14 7 11 9 8 10 7 15 2 7 1 12v193l-2 16-5 13-6 10-8 9-10 7-9 5-7 2-21 2h-363l-25-1-13-2-16-8-12-11-7-10-6-13-2-10v-212l5-16 7-11 11-12 10-7 12-5z" fill="#81B23D"/>
<path transform="translate(241,802)" d="m0 0h306l16 4 14 7 11 9 2 1 5 9 3 5 5 12 2 8 1 35v174l-1 31-2 10-4 11-7 11-8 9-14 9-13 5-13 2h-305l-16-2-15-6-12-9-7-7-8-14-4-12-1-7-1-31v-177l1-34 6-16 6-10 11-12 8-6 10-5 6-2z" fill="#2DFFDF"/>
<path transform="translate(1452,802)" d="m0 0h256l3 8 9 49 18 92 18 91 14 71 6 27 1 13-1 1h-321l-16-2-15-6-11-8-5-5-6-7-8-16-3-19v-225l2-16 5-12 7-12 11-11 14-8 8-3z" fill="#2DFEDE"/>
<path transform="translate(233,115)" d="m0 0h334l15 3 14 7 11 9 9 12 7 16 2 17v129l-2 15-5 13-6 10-8 9-10 7-9 5-7 2-19 3h-298l-29-1-15-4-11-6-9-7-9-10-8-15-3-13-1-31v-82l1-34 3-12 6-12 9-11 10-9 14-7z" fill="#E7213C"/>
<path transform="translate(933,902)" d="m0 0h82l17 2 17 6 13 7 12 9 8 10 7 11 6 14 3 11 2 19v197l-4 19-7 16-9 13-13 13-14 9-14 6-12 3-7 1h-89l-16-3-17-7-11-7-12-11-9-11-8-16-5-18-1-7-1-26v-150l1-31 4-18 6-14 8-12 7-9 8-7 13-9 15-6 13-3z" fill="#2DFFDF"/>
<path transform="translate(1323,51)" d="m0 0h11l11 4 10 7 16 8 21 6 25 4 24 2 24 1 25 3 21 6 17 7 17 10 13 10 10 9 11 11 9 12 10 16 8 17 6 18 4 23 1 11v15l-3 23-5 19-9 21-9 16-12 16-5 6h-2l-2 4-12 11-6 4-45 1h-89l-55-1-7-4-13-12-11-12-12-17-10-19-7-19-5-22-1-8v-30l4-23 5-17 10-22 9-14 10-13 7-8h2l-4-4-16-8-11-7-9-8-5-8-2-6v-14l4-10 8-9 10-5z" fill="#674D02"/>
<path transform="translate(241,802)" d="m0 0h306l16 4 14 7 11 9 2 1 5 9 3 5 5 12 2 8 1 35v174l-1 31-2 10-4 11-7 11-8 9-14 9-13 5-13 2h-305l-16-2-15-6-12-9-7-7-8-14-4-12-1-7-1-31v-177l1-34 6-16 6-10 11-12 8-6 10-5 6-2zm-3 33-12 3-8 6-7 8-3 7-1 7v218l2 15 5 10 7 7 12 5 8 1h252l53-1 10-3 9-7 5-8 3-11v-226l-2-11-7-11-9-6-12-3h-63l-1 1-1 231-4 8-7 8-10 5-4 1h-10l-11-4-6-5h-2l-2-4-4-11-1-13-1-216-1-1z" fill="#008C9B"/>
<path transform="translate(777,51)" d="m0 0h104v320h-79l-25-1-13-2-16-8-12-11-7-10-6-13-2-10v-212l5-16 7-11 11-12 10-7 12-5z" fill="#81B23D"/>
<path transform="translate(1910,1203)" d="m0 0h20l15 4 15 8 14 12 8 9 10 15 8 15 8 22 5 21 2 14 1 14v17l-2 24-4 20-8 24-9 19-8 12-11 13-10 9-9 6h-2l-1 4-20 5-17 1-14-3-12-5-13-8-10-9-9-10-10-15-10-21-4-11-6-23v-2h-67l-492-1v-1h541l15-2v-10l-1-9v-28l2-18 4-20 6-19 7-16 7-13 8-11 9-10 11-10 14-9 7-1z" fill="#E59949"/>
<path transform="translate(233,115)" d="m0 0h334l15 3 14 7 11 9 9 12 7 16 2 17v33h-92l-4-2-5-14-7-9-12-6h-16l-12 6-7 8-6 15-2 1-9 1-59 1-53-1-4-3-6-15-7-8-8-4-3-1h-16l-12 6-7 8-6 15-2 1-9 1-37 1h-48l1-44 3-12 6-12 9-11 10-9 14-7z" fill="#E7213C"/>
<path transform="translate(297,180)" d="m0 0h16l9 4 7 6 4 6 5 13 3 2 61 1 51-1 11-1 3-11 6-9 6-5 10-5h16l12 6 7 8 4 9 2 7 3 1 92 1v61l-1 1-15 1h-61l-17 1-5 12-7 9-7 6-8 3-11 1-9-2-8-6-8-10-6-12-2-1-12-1h-105l-4 1-5 12-7 9-7 6-8 3-11 1-9-2-8-6-8-10-6-12-1-1-14-1-78-1-1-1v-60l4-1h44l37-1 11-1 3-10 4-8 8-7z" fill="#4D223E"/>
<path transform="translate(933,902)" d="m0 0h82l17 2 17 6 13 7 12 9 8 10 7 11 6 14 3 11 2 19v197l-4 19-7 16-9 13-13 13-14 9-14 6-12 3-7 1h-89l-16-3-17-7-11-7-12-11-9-11-8-16-5-18-1-7-1-26v-150l1-31 4-18 6-14 8-12 7-9 8-7 13-9 15-6 13-3zm5 33-16 3-12 6-10 9-8 9-6 13-2 13v186l2 19 6 15 7 9 8 8 14 7 6 2 16 2h53l22-1 16-4 12-7 10-10 7-12 3-10 1-8v-198l-2-11-5-12-8-11-10-8-12-6-16-3z" fill="#008C9B"/>
<path transform="translate(1452,802)" d="m0 0h256l3 8 4 21v4l-6 1h-257l-10 3-9 6-7 10-2 7v226l2 12 4 8 4 5 6 4 9 3 8 1 76 1h67l81-1h90l2 6 4 20v6l-1 1h-321l-16-2-15-6-11-8-5-5-6-7-8-16-3-19v-225l2-16 5-12 7-12 11-11 14-8 8-3z" fill="#008C9B"/>
<path transform="translate(1137,51)" d="m0 0h38l15 3 14 7 11 9 8 10 7 15 2 7 1 12v193l-2 16-5 13-6 10-8 9-10 7-9 5-7 2-21 2h-28l-1-5z" fill="#81B23D"/>
<path transform="translate(1924,1678)" d="m0 0h87l5 2v112l-5 3-172 1h-38l-2-21-3-19-7-26-7-18-9-19-6-10-1-4z" fill="#3B4D6D"/>
<path transform="translate(1586,1710)" d="m0 0h27l16 4 16 8 12 9 9 9 9 14 4 8 5 15 1 11v19l-5 19-7 14-9 12-9 9-13 9-14 6-9 1v2l-5 1h-24l-13-2-10-4-9-4-11-7-11-10-9-12-6-11-5-15-2-11v-18l4-18 7-16 9-12 7-8 13-10 14-7 13-4z" fill="#DCDDDD"/>
<path transform="translate(389,1710)" d="m0 0h27l16 4 16 8 11 8 5 4 9 11 9 16 5 15 2 13v11l-3 18-5 13-6 11-7 9-4 5-11 9-9 6-15 6-17 3h-23l-15-4-16-8-10-7-12-12-9-14-5-11-4-15-1-18 5-25 8-16 8-11 10-10 13-9 13-6z" fill="#DCDDDD"/>
<path transform="translate(1425,1678)" d="m0 0h7l1 3-10 18-8 16-8 21-6 26-2 12-2 22-181-1v-116z" fill="#3A4D6C"/>
<path transform="translate(32,1364)" d="m0 0h1v315l205-1-8 14-11 22-7 18-6 23-4 25-1 16h-168l-1-1z" fill="#3C4C6B"/>
<path transform="translate(1448,147)" d="m0 0h18l17 3 15 6 14 8 10 8 7 7v2h2l10 15 6 13 4 13 1 6v30l-4 15-5 13-8 13-9 11-11 10-15 9-8 4-20 6h-28l-10-3-10-9-5-11v-13l4-9 7-8 10-5 19-4 8-4 9-10 3-8v-14l-4-9-5-7-2-1v-2l-5-2-8-3h-21l-18 5-16 8-10 7-12 11-9 12-3 6h-2l-3-18v-14l3-16 6-17 7-12 9-11 11-11 16-10 12-5 15-4z" fill="#A3763A"/>
<path transform="translate(1073,51)" d="m0 0h64v320h-64l-1-317z" fill="#36530A"/>
<path transform="translate(817,51)" d="m0 0h64v320h-57l-7-2z" fill="#35530A"/>
<path transform="translate(1941,1255)" d="m0 0h16l11 4 11 7 8 8 8 11 8 17 5 18 2 14v25l-3 21-8 21-6 9-4 7-12 12-14 8-9 2h-11l-11-3-10-6-9-7-8-10-6-10-6-14-4-14-2-15v-27l3-16 4-14 5-12 6-10 7-9 9-8 8-5z" fill="#FFF068"/>
<path transform="translate(616,1678)" d="m0 0h118l1 1 1 16-1 100-130 1-4-33-6-25-7-21-12-25-6-10v-3z" fill="#3A4D6C"/>
<path transform="translate(1152,467)" d="m0 0h100l28 1 1 5-1 105-10 1h-89l-26-1-3-1z" fill="#1E5F6B"/>
<path transform="translate(539,466)" d="m0 0 37 2v109l-1 1-12 1h-87l-23-1-5-1v-110z" fill="#1E5F6A"/>
<path transform="translate(851,1351)" d="m0 0h85l11 2 10 6 7 8 4 10v13l-6 12-7 7-10 5-3 1-81 1-14-1-10-4-10-9-5-9-1-4v-12l4-10 8-9 8-5z" fill="#3B4D6C"/>
<path transform="translate(495,175)" d="m0 0 7 1 7 3 11 7 7 10 4 12 9-1 7-2h21l24-1 6-2 1-5 4 1v2h-2v2l8 1-5-2v-3l8-4 1-5 2 1 2 9-3 3 11 8v2h-92l-4-2-5-14-7-9-12-6h-16l-12 6-7 8-6 15-2 1-9 1-59 1-53-1-4-3-6-15-7-8-8-4-3-1h-16l-12 6-7 8-6 15-2 1-9 1-37 1h-48v-10l2-2v10l4-2 10-2 1-1 15-1h31l17 1v2l6-2 7 1 3-11 4-5 10-8 13-6 9-1 9 3 10 7 7 8 5 13v2l16-2 5-1 1 1 7-1 7 1 2-1h13l8-1v2l10-2 6 1 6-1h10l3 1 4-1 4 1 10 1h4l7 1 1-9h2l1-5 4-6 5-2v-2l13-7z" fill="#DA1F3C"/>
<path transform="translate(624,273)" d="m0 0 1 3-3 4-3 1-2 7 1 9-2 4-5-1-3-6h-3v-2h-3l2-4-1-4-14-1-16-1-3-2h-6l-2-1h-22l-9-1-2 9-8 11-4 4h-2l-2 4-5 3h-3v2l-11 2-2-1v-2l-7 1h-11v2l-3 1-9-3-1-3h-2v-2l-3-1-2-1-1-3h-4l-3-9-1-1 1-3h4l-1-3-5-2v-2l-7-1-6-1-33-1h-30l-14-1-15 1-1 7-4 3 3-10 2-3 4-1h105l12 1 4 4 6 11 7 9 7 5 9 2 11-1 10-4 7-7 6-10 3-8 1-1 25-1h53z" fill="#DB1F3C"/>
<path transform="translate(33,897)" d="m0 0h1l2 80v34l-1 86-1 249 1 35 1 1h700v-7h1v8l-635 1h-68l-1-1-1-19v-451z" fill="#C08751"/>
<path transform="translate(176,273)" d="m0 0 79 1 14 1 6 9 4 8 8 9 8 4 12 1 11-3 6-4 7-8 3-3-2 6-7 8-4 4-8 4-4 1h-8l-7-2h-9l-6-1-9-2-2-1 1-11-2 1 1 2-2 3-3-2v-2l-3-1 1-3h3 4v-4l-4-3-5 2-5-2v-2l-4-1h-15l-4-1h-16l-11-1-9 1-11-4h-5l-1 20h-1l-1-12z" fill="#DA203C"/>
<path transform="translate(229,369)" d="m0 0h341v1l-11 2h-298l-29-1z" fill="#E01F3C"/>
<path transform="translate(1216,1383)" d="m0 0h13l20 1v1l-17 4-8 1-3 7-2 4v242l-2 31 5 2 22 1v1h-28z" fill="#DB1F3C"/>
<path transform="translate(735,1400)" d="m0 0h1l1 25v68l-1 185-15-1 2-4 5-3h2v-2l-2-1-2-3v-3h2l1-4-1-3h2l1-4h2l1-10v-25l-1-23v-21-3z" fill="#DB1F3C"/>
<path transform="translate(33,897)" d="m0 0h1l2 80v34l-1 86-1 234h-1l-1-418z" fill="#D69367"/>
<path transform="translate(1367,369)" d="m0 0h186l-1 2-45 1h-89l-55-1z" fill="#916B2A"/>
<path transform="translate(229,369)" d="m0 0h341v1l-11 2-31-1h-229l-38 1-29-1z" fill="#D1926B"/>
<path transform="translate(1498,800)" d="m0 0h66l122 1 10 1v1h-182l-56-1v-1z" fill="#CA9668"/>
<path transform="translate(33,897)" d="m0 0h1l2 80v34l-1 28h-2l-1-87v-39z" fill="#D69465"/>
<path transform="translate(33,1346)" d="m0 0h1l1 35 1 1h170v1l-104 1h-68l-1-1z" fill="#E69949"/>
<path transform="translate(1947,1485)" d="m0 0h5v24h-1l-1-10v-11h-2l-2 4h-2v-2l-5 3h-2l-13 2-3-1h-12l-9-3-1-4 16 3 17-1z" fill="#D71F3C"/>
<path transform="translate(381,1592)" d="m0 0h41l11 2 8 1 5 2v1l-12-1-14-2h-34l-26 4-8 1 1-2 5-2 11-1z" fill="#DB1F3C"/>
<path transform="translate(1579,1592)" d="m0 0h33l16 2 9 1 5 2v1l-12-1-15-2h-32l-26 4-9 1 2-2 4-2 12-1z" fill="#DB1F3C"/>
<path transform="translate(1073,368)" d="m0 0h44l19 1 1 2h-64z" fill="#504F09"/>
<path transform="translate(828,368)" d="m0 0h21l31 1 1 2h-57l-6-1v-1z" fill="#524F06"/>
<path transform="translate(33,897)" d="m0 0h1l1 40v26h-2l-1-11v-39z" fill="#D89566"/>
<path transform="translate(33,1346)" d="m0 0h1l1 35 1 1 66 1v1h-68l-1-1z" fill="#D3936C"/>
<path transform="translate(528,369)" d="m0 0h42v1l-11 2-31-1z" fill="#CF9068"/>
<path transform="translate(33,1346)" d="m0 0h1l1 35 1 1 11 1v1h-13l-1-1z" fill="#D89463"/>
<path transform="translate(1448,1659)" d="m0 0 2 1-9 11-5 6-1-2 4-6 5-5z" fill="#D9213B"/>
<path transform="translate(720,1384)" d="m0 0h16l-2 4-5-1-9-2z" fill="#DB1F3C"/>
<path transform="translate(1065,918)" d="m0 0h3v2l4 1 4 5-4-1-7-5z" fill="#DC955B"/>
<path transform="translate(248,1663)" d="m0 0 2 1-9 11-2 1 1-4h2l2-4z" fill="#DB1F3C"/>
</svg>

